{"accessors" : [{"bufferView" : 0, "byteOffset" : 0, "componentType" : 5123, "count" : 6480, "type" : "SCALAR", "max" : [4319], "min" : [0]}, {"bufferView" : 1, "byteOffset" : 0, "componentType" : 5126, "count" : 4320, "type" : "VEC3", "max" : [6.97079610824585, 15.353254318237305, 1.0293610095977783], "min" : [-6.752090930938721, -0.45516300201416016, -1.0297449827194214]}, {"bufferView" : 1, "byteOffset" : 12, "componentType" : 5126, "count" : 4320, "type" : "VEC3", "max" : [0.9998846054077148, 0.9997544288635254, 1.0000027418136597], "min" : [-0.9999204277992249, -0.9981030821800232, -1.000000238418579]}], "asset" : {"generator" : "Aspose.3D 21.1", "version" : "2.0"}, "buffers" : [{"uri" : "buffer.bin", "byteLength" : 168488}], "bufferViews" : [{"buffer" : 0, "byteOffset" : 0, "byteLength" : 12960, "target" : 34963}, {"buffer" : 0, "byteOffset" : 12964, "byteLength" : 155520, "byteStride" : 24, "target" : 34962}], "meshes" : [{"primitives" : [{"attributes" : {"POSITION" : 1, "NORMAL" : 2}, "indices" : 0, "mode" : 4}]}], "nodes" : [{"mesh" : 0, "name" : "portel_Plane.005"}], "scene" : 0, "scenes" : [{"nodes" : [0]}]}