{
    "asset" : {
        "generator" : "Khronos glTF Blender I/O v1.4.40",
        "version" : "2.0"
    },
    "scene" : 0,
    "scenes" : [
        {
            "name" : "Scene",
            "nodes" : [
                1
            ]
        }
    ],
    "nodes" : [
        {
            "mesh" : 0,
            "name" : "Mesh_7",
            "rotation" : [
                0,
                0,
                -1,
                -4.371138828673793e-08
            ]
        },
        {
            "children" : [
                0
            ],
            "name" : "Circle.001_1",
            "rotation" : [
                0.6991696953773499,
                -0.1056491956114769,
                -0.10564921796321869,
                0.6991696953773499
            ],
            "scale" : [
                0.10000000149011612,
                0.10000000149011612,
                0.10000000149011612
            ],
            "translation" : [
                0,
                0,
                0.42500001192092896
            ]
        }
    ],
    "materials" : [
        {
            "doubleSided" : true,
            "name" : "TeslaBlack",
            "pbrMetallicRoughness" : {
                "baseColorFactor" : [
                    0.12370999902486801,
                    0.12370999902486801,
                    0.12370999902486801,
                    1
                ],
                "metallicRoughnessTexture" : {
                    "index" : 0,
                    "texCoord" : 0
                },
                "roughnessFactor" : 0.800495445728302
            }
        }
    ],
    "meshes" : [
        {
            "name" : "Mesh_7",
            "primitives" : [
                {
                    "attributes" : {
                        "POSITION" : 0,
                        "NORMAL" : 1,
                        "TEXCOORD_0" : 2
                    },
                    "indices" : 3,
                    "material" : 0
                }
            ]
        }
    ],
    "textures" : [
        {
            "sampler" : 0,
            "source" : 0
        }
    ],
    "images" : [
        {
            "mimeType" : "image/png",
            "name" : "TeslaBlack_metallicRoughness",
            "uri" : "TeslaBlack_metallicRoughness.png"
        }
    ],
    "accessors" : [
        {
            "bufferView" : 0,
            "componentType" : 5126,
            "count" : 13076,
            "max" : [
                1.3172625303268433,
                4.920926094055176,
                1.3177253007888794
            ],
            "min" : [
                -1.316949486732483,
                3.658989906311035,
                -1.3160618543624878
            ],
            "type" : "VEC3"
        },
        {
            "bufferView" : 1,
            "componentType" : 5126,
            "count" : 13076,
            "type" : "VEC3"
        },
        {
            "bufferView" : 2,
            "componentType" : 5126,
            "count" : 13076,
            "type" : "VEC2"
        },
        {
            "bufferView" : 3,
            "componentType" : 5123,
            "count" : 19896,
            "type" : "SCALAR"
        }
    ],
    "bufferViews" : [
        {
            "buffer" : 0,
            "byteLength" : 156912,
            "byteOffset" : 0
        },
        {
            "buffer" : 0,
            "byteLength" : 156912,
            "byteOffset" : 156912
        },
        {
            "buffer" : 0,
            "byteLength" : 104608,
            "byteOffset" : 313824
        },
        {
            "buffer" : 0,
            "byteLength" : 39792,
            "byteOffset" : 418432
        }
    ],
    "samplers" : [
        {
            "magFilter" : 9729,
            "minFilter" : 9986
        }
    ],
    "buffers" : [
        {
            "byteLength" : 458224,
            "uri" : "wheel.bin"
        }
    ]
}
