{
    "asset" : {
        "generator" : "Khronos glTF Blender I/O v1.4.40",
        "version" : "2.0"
    },
    "scene" : 0,
    "scenes" : [
        {
            "name" : "Scene",
            "nodes" : [
                10
            ]
        }
    ],
    "nodes" : [
        {
            "mesh" : 0,
            "name" : "Mesh_0"
        },
        {
            "mesh" : 1,
            "name" : "Mesh_1"
        },
        {
            "mesh" : 2,
            "name" : "Mesh_2"
        },
        {
            "mesh" : 3,
            "name" : "Mesh_3"
        },
        {
            "mesh" : 4,
            "name" : "Mesh_4"
        },
        {
            "mesh" : 5,
            "name" : "Mesh_5"
        },
        {
            "children" : [
                0,
                1,
                2,
                3,
                4,
                5
            ],
            "name" : "Cube_2"
        },
        {
            "children" : [
                6
            ],
            "name" : "GLTF_SceneRootNode",
            "rotation" : [
                0.7071068286895752,
                0,
                0,
                0.7071068286895752
            ]
        },
        {
            "children" : [
                7
            ],
            "name" : "root"
        },
        {
            "children" : [
                8
            ],
            "name" : "RootNode (model correction matrix)"
        },
        {
            "children" : [
                9
            ],
            "name" : "RootNode (gltf orientation matrix)",
            "rotation" : [
                -0.4999999701976776,
                0.5,
                0.5,
                0.5
            ],
            "scale" : [
                0.5,
                0.5,
                0.5
            ]
        }
    ],
    "materials" : [
        {
            "doubleSided" : true,
            "name" : "Base.001",
            "pbrMetallicRoughness" : {
                "roughnessFactor" : 0.6710606217384338
            }
        },
        {
            "doubleSided" : true,
            "name" : "TeslaBlack.001",
            "pbrMetallicRoughness" : {
                "baseColorFactor" : [
                    0.12370999902486801,
                    0.12370999902486801,
                    0.12370999902486801,
                    1
                ],
                "metallicRoughnessTexture" : {
                    "index" : 0,
                    "texCoord" : 0
                },
                "roughnessFactor" : 0.800495445728302
            }
        },
        {
            "doubleSided" : true,
            "emissiveFactor" : [
                1,
                1,
                1
            ],
            "name" : "TeslaFrontLight.001",
            "pbrMetallicRoughness" : {}
        },
        {
            "doubleSided" : true,
            "emissiveFactor" : [
                1,
                0.029069799929857254,
                0.03288419917225838
            ],
            "name" : "TeslaRearLight.001",
            "pbrMetallicRoughness" : {
                "baseColorFactor" : [
                    0.8736661672592163,
                    0.8736661672592163,
                    0.8736661672592163,
                    1
                ],
                "roughnessFactor" : 0
            }
        },
        {
            "doubleSided" : true,
            "name" : "Material.002",
            "pbrMetallicRoughness" : {
                "baseColorFactor" : [
                    0.7241664528846741,
                    0.88991379737854,
                    1,
                    1
                ],
                "roughnessFactor" : 0.44681817293167114
            }
        },
        {
            "doubleSided" : true,
            "emissiveFactor" : [
                1,
                0.10738600045442581,
                0
            ],
            "name" : "Material.003",
            "pbrMetallicRoughness" : {}
        }
    ],
    "meshes" : [
        {
            "name" : "Mesh_0",
            "primitives" : [
                {
                    "attributes" : {
                        "POSITION" : 0,
                        "NORMAL" : 1,
                        "TEXCOORD_0" : 2
                    },
                    "indices" : 3,
                    "material" : 0
                }
            ]
        },
        {
            "name" : "Mesh_1",
            "primitives" : [
                {
                    "attributes" : {
                        "POSITION" : 4,
                        "NORMAL" : 5,
                        "TEXCOORD_0" : 6
                    },
                    "indices" : 7,
                    "material" : 1
                }
            ]
        },
        {
            "name" : "Mesh_2",
            "primitives" : [
                {
                    "attributes" : {
                        "POSITION" : 8,
                        "NORMAL" : 9,
                        "TEXCOORD_0" : 10
                    },
                    "indices" : 11,
                    "material" : 2
                }
            ]
        },
        {
            "name" : "Mesh_3",
            "primitives" : [
                {
                    "attributes" : {
                        "POSITION" : 12,
                        "NORMAL" : 13,
                        "TEXCOORD_0" : 14
                    },
                    "indices" : 15,
                    "material" : 3
                }
            ]
        },
        {
            "name" : "Mesh_4",
            "primitives" : [
                {
                    "attributes" : {
                        "POSITION" : 16,
                        "NORMAL" : 17,
                        "TEXCOORD_0" : 18
                    },
                    "indices" : 19,
                    "material" : 4
                }
            ]
        },
        {
            "name" : "Mesh_5",
            "primitives" : [
                {
                    "attributes" : {
                        "POSITION" : 20,
                        "NORMAL" : 21,
                        "TEXCOORD_0" : 22
                    },
                    "indices" : 23,
                    "material" : 5
                }
            ]
        }
    ],
    "textures" : [
        {
            "sampler" : 0,
            "source" : 0
        }
    ],
    "images" : [
        {
            "mimeType" : "image/png",
            "name" : "TeslaBlack_metallicRoughness",
            "uri" : "TeslaBlack_metallicRoughness.png"
        }
    ],
    "accessors" : [
        {
            "bufferView" : 0,
            "componentType" : 5126,
            "count" : 2070,
            "max" : [
                1.6940151453018188,
                0.5780766010284424,
                0.5852355360984802
            ],
            "min" : [
                -1.7639176845550537,
                -0.2709553837776184,
                -0.5852355360984802
            ],
            "type" : "VEC3"
        },
        {
            "bufferView" : 1,
            "componentType" : 5126,
            "count" : 2070,
            "type" : "VEC3"
        },
        {
            "bufferView" : 2,
            "componentType" : 5126,
            "count" : 2070,
            "type" : "VEC2"
        },
        {
            "bufferView" : 3,
            "componentType" : 5123,
            "count" : 2484,
            "type" : "SCALAR"
        },
        {
            "bufferView" : 4,
            "componentType" : 5126,
            "count" : 1347,
            "max" : [
                1.6559863090515137,
                0.5780766010284424,
                0.6141628623008728
            ],
            "min" : [
                -1.7639176845550537,
                -0.37077227234840393,
                -0.6141628623008728
            ],
            "type" : "VEC3"
        },
        {
            "bufferView" : 5,
            "componentType" : 5126,
            "count" : 1347,
            "type" : "VEC3"
        },
        {
            "bufferView" : 6,
            "componentType" : 5126,
            "count" : 1347,
            "type" : "VEC2"
        },
        {
            "bufferView" : 7,
            "componentType" : 5123,
            "count" : 1710,
            "type" : "SCALAR"
        },
        {
            "bufferView" : 8,
            "componentType" : 5126,
            "count" : 48,
            "max" : [
                1.6926904916763306,
                0.5637744069099426,
                0.5707706809043884
            ],
            "min" : [
                0.24221912026405334,
                -0.2146291434764862,
                -0.5707706809043884
            ],
            "type" : "VEC3"
        },
        {
            "bufferView" : 9,
            "componentType" : 5126,
            "count" : 48,
            "type" : "VEC3"
        },
        {
            "bufferView" : 10,
            "componentType" : 5126,
            "count" : 48,
            "type" : "VEC2"
        },
        {
            "bufferView" : 11,
            "componentType" : 5123,
            "count" : 60,
            "type" : "SCALAR"
        },
        {
            "bufferView" : 12,
            "componentType" : 5126,
            "count" : 24,
            "max" : [
                -1.6536158323287964,
                0.2938229739665985,
                0.5662344098091125
            ],
            "min" : [
                -1.7617961168289185,
                -0.10715173184871674,
                -0.5662344098091125
            ],
            "type" : "VEC3"
        },
        {
            "bufferView" : 13,
            "componentType" : 5126,
            "count" : 24,
            "type" : "VEC3"
        },
        {
            "bufferView" : 14,
            "componentType" : 5126,
            "count" : 24,
            "type" : "VEC2"
        },
        {
            "bufferView" : 15,
            "componentType" : 5123,
            "count" : 24,
            "type" : "SCALAR"
        },
        {
            "bufferView" : 16,
            "componentType" : 5126,
            "count" : 82,
            "max" : [
                1.1827409267425537,
                0.571262776851654,
                0.5494268536567688
            ],
            "min" : [
                -0.6243073344230652,
                0.2447582334280014,
                -0.5494268536567688
            ],
            "type" : "VEC3"
        },
        {
            "bufferView" : 17,
            "componentType" : 5126,
            "count" : 82,
            "type" : "VEC3"
        },
        {
            "bufferView" : 18,
            "componentType" : 5126,
            "count" : 82,
            "type" : "VEC2"
        },
        {
            "bufferView" : 19,
            "componentType" : 5123,
            "count" : 90,
            "type" : "SCALAR"
        },
        {
            "bufferView" : 20,
            "componentType" : 5126,
            "count" : 8,
            "max" : [
                1.6357609033584595,
                -0.12754373252391815,
                0.5324069857597351
            ],
            "min" : [
                1.5150361061096191,
                -0.13462580740451813,
                -0.5324069857597351
            ],
            "type" : "VEC3"
        },
        {
            "bufferView" : 21,
            "componentType" : 5126,
            "count" : 8,
            "type" : "VEC3"
        },
        {
            "bufferView" : 22,
            "componentType" : 5126,
            "count" : 8,
            "type" : "VEC2"
        },
        {
            "bufferView" : 23,
            "componentType" : 5123,
            "count" : 12,
            "type" : "SCALAR"
        }
    ],
    "bufferViews" : [
        {
            "buffer" : 0,
            "byteLength" : 24840,
            "byteOffset" : 0
        },
        {
            "buffer" : 0,
            "byteLength" : 24840,
            "byteOffset" : 24840
        },
        {
            "buffer" : 0,
            "byteLength" : 16560,
            "byteOffset" : 49680
        },
        {
            "buffer" : 0,
            "byteLength" : 4968,
            "byteOffset" : 66240
        },
        {
            "buffer" : 0,
            "byteLength" : 16164,
            "byteOffset" : 71208
        },
        {
            "buffer" : 0,
            "byteLength" : 16164,
            "byteOffset" : 87372
        },
        {
            "buffer" : 0,
            "byteLength" : 10776,
            "byteOffset" : 103536
        },
        {
            "buffer" : 0,
            "byteLength" : 3420,
            "byteOffset" : 114312
        },
        {
            "buffer" : 0,
            "byteLength" : 576,
            "byteOffset" : 117732
        },
        {
            "buffer" : 0,
            "byteLength" : 576,
            "byteOffset" : 118308
        },
        {
            "buffer" : 0,
            "byteLength" : 384,
            "byteOffset" : 118884
        },
        {
            "buffer" : 0,
            "byteLength" : 120,
            "byteOffset" : 119268
        },
        {
            "buffer" : 0,
            "byteLength" : 288,
            "byteOffset" : 119388
        },
        {
            "buffer" : 0,
            "byteLength" : 288,
            "byteOffset" : 119676
        },
        {
            "buffer" : 0,
            "byteLength" : 192,
            "byteOffset" : 119964
        },
        {
            "buffer" : 0,
            "byteLength" : 48,
            "byteOffset" : 120156
        },
        {
            "buffer" : 0,
            "byteLength" : 984,
            "byteOffset" : 120204
        },
        {
            "buffer" : 0,
            "byteLength" : 984,
            "byteOffset" : 121188
        },
        {
            "buffer" : 0,
            "byteLength" : 656,
            "byteOffset" : 122172
        },
        {
            "buffer" : 0,
            "byteLength" : 180,
            "byteOffset" : 122828
        },
        {
            "buffer" : 0,
            "byteLength" : 96,
            "byteOffset" : 123008
        },
        {
            "buffer" : 0,
            "byteLength" : 96,
            "byteOffset" : 123104
        },
        {
            "buffer" : 0,
            "byteLength" : 64,
            "byteOffset" : 123200
        },
        {
            "buffer" : 0,
            "byteLength" : 24,
            "byteOffset" : 123264
        }
    ],
    "samplers" : [
        {
            "magFilter" : 9729,
            "minFilter" : 9986
        }
    ],
    "buffers" : [
        {
            "byteLength" : 123288,
            "uri" : "chassis.bin"
        }
    ]
}
