{
    "asset" : {
        "generator" : "Khronos glTF Blender I/O v1.3.48",
        "version" : "2.0"
    },
    "scene" : 0,
    "scenes" : [
        {
            "name" : "Scene",
            "nodes" : [
                0
            ]
        }
    ],
    "nodes" : [
        {
            "mesh" : 0,
            "name" : "group1085046267",
            "rotation" : [
                0.7071068286895752,
                0,
                0,
                0.7071068286895752
            ],
            "translation" : [
                0.009999999776482582,
                -0.03999999910593033,
                0.6269999742507935
            ]
        }
    ],
    "materials" : [
        {
            "doubleSided" : true,
            "emissiveFactor" : [
                0,
                0,
                0
            ],
            "name" : "mat23",
            "pbrMetallicRoughness" : {
                "baseColorFactor" : [
                    0.10000000149011612,
                    0.10000000149011612,
                    0.10000000149011612,
                    1
                ],
                "metallicFactor" : 0,
                "roughnessFactor" : 1
            }
        },
        {
            "doubleSided" : true,
            "emissiveFactor" : [
                0,
                0,
                0
            ],
            "name" : "mat15",
            "pbrMetallicRoughness" : {
                "baseColorFactor" : [
                    0.8100000023841858,
                    0.8500000238418579,
                    0.8600000143051147,
                    1
                ],
                "metallicFactor" : 0,
                "roughnessFactor" : 1
            }
        },
        {
            "doubleSided" : true,
            "emissiveFactor" : [
                0,
                0,
                0
            ],
            "name" : "mat16",
            "pbrMetallicRoughness" : {
                "baseColorFactor" : [
                    0.4699999988079071,
                    0.5600000023841858,
                    0.6100000143051147,
                    1
                ],
                "metallicFactor" : 0,
                "roughnessFactor" : 1
            }
        }
    ],
    "meshes" : [
        {
            "name" : "group1085046267",
            "primitives" : [
                {
                    "attributes" : {
                        "POSITION" : 0,
                        "NORMAL" : 1,
                        "TEXCOORD_0" : 2
                    },
                    "indices" : 3,
                    "material" : 0
                },
                {
                    "attributes" : {
                        "POSITION" : 4,
                        "NORMAL" : 5,
                        "TEXCOORD_0" : 6
                    },
                    "indices" : 7,
                    "material" : 1
                },
                {
                    "attributes" : {
                        "POSITION" : 8,
                        "NORMAL" : 9,
                        "TEXCOORD_0" : 10
                    },
                    "indices" : 11,
                    "material" : 2
                }
            ]
        }
    ],
    "accessors" : [
        {
            "bufferView" : 0,
            "componentType" : 5126,
            "count" : 703,
            "max" : [
                0.1572120040655136,
                -0.5369942784309387,
                0.1214141994714737
            ],
            "min" : [
                -0.17278799414634705,
                -0.7154595255851746,
                -0.20635460317134857
            ],
            "type" : "VEC3"
        },
        {
            "bufferView" : 1,
            "componentType" : 5126,
            "count" : 703,
            "type" : "VEC3"
        },
        {
            "bufferView" : 2,
            "componentType" : 5126,
            "count" : 703,
            "type" : "VEC2"
        },
        {
            "bufferView" : 3,
            "componentType" : 5123,
            "count" : 720,
            "type" : "SCALAR"
        },
        {
            "bufferView" : 4,
            "componentType" : 5126,
            "count" : 49,
            "max" : [
                0.037422168999910355,
                -0.5369942784309387,
                0.0038552279584109783
            ],
            "min" : [
                -0.05522887036204338,
                -0.6976128816604614,
                -0.08879566192626953
            ],
            "type" : "VEC3"
        },
        {
            "bufferView" : 5,
            "componentType" : 5126,
            "count" : 49,
            "type" : "VEC3"
        },
        {
            "bufferView" : 6,
            "componentType" : 5126,
            "count" : 49,
            "type" : "VEC2"
        },
        {
            "bufferView" : 7,
            "componentType" : 5123,
            "count" : 60,
            "type" : "SCALAR"
        },
        {
            "bufferView" : 8,
            "componentType" : 5126,
            "count" : 72,
            "max" : [
                0.10200739651918411,
                -0.7065361142158508,
                0.06844068318605423
            ],
            "min" : [
                -0.11981450021266937,
                -0.7154595255851746,
                -0.1533810943365097
            ],
            "type" : "VEC3"
        },
        {
            "bufferView" : 9,
            "componentType" : 5126,
            "count" : 72,
            "type" : "VEC3"
        },
        {
            "bufferView" : 10,
            "componentType" : 5126,
            "count" : 72,
            "type" : "VEC2"
        },
        {
            "bufferView" : 11,
            "componentType" : 5123,
            "count" : 72,
            "type" : "SCALAR"
        }
    ],
    "bufferViews" : [
        {
            "buffer" : 0,
            "byteLength" : 8436,
            "byteOffset" : 0
        },
        {
            "buffer" : 0,
            "byteLength" : 8436,
            "byteOffset" : 8436
        },
        {
            "buffer" : 0,
            "byteLength" : 5624,
            "byteOffset" : 16872
        },
        {
            "buffer" : 0,
            "byteLength" : 1440,
            "byteOffset" : 22496
        },
        {
            "buffer" : 0,
            "byteLength" : 588,
            "byteOffset" : 23936
        },
        {
            "buffer" : 0,
            "byteLength" : 588,
            "byteOffset" : 24524
        },
        {
            "buffer" : 0,
            "byteLength" : 392,
            "byteOffset" : 25112
        },
        {
            "buffer" : 0,
            "byteLength" : 120,
            "byteOffset" : 25504
        },
        {
            "buffer" : 0,
            "byteLength" : 864,
            "byteOffset" : 25624
        },
        {
            "buffer" : 0,
            "byteLength" : 864,
            "byteOffset" : 26488
        },
        {
            "buffer" : 0,
            "byteLength" : 576,
            "byteOffset" : 27352
        },
        {
            "buffer" : 0,
            "byteLength" : 144,
            "byteOffset" : 27928
        }
    ],
    "buffers" : [
        {
            "byteLength" : 28072,
            "uri" : "data:application/octet-stream;base64,"
        }
    ]
}
