{
    "asset" : {
        "generator" : "Khronos glTF Blender I/O v1.4.40",
        "version" : "2.0"
    },
    "scene" : 0,
    "scenes" : [
        {
            "name" : "Scene",
            "nodes" : [
                0,
                1
            ]
        }
    ],
    "nodes" : [
        {
            "mesh" : 0,
            "name" : "portel_Plane.003",
            "rotation" : [
                0.7071068286895752,
                0,
                0,
                0.7071068286895752
            ]
        },
        {
            "mesh" : 1,
            "name" : "Cylinder",
            "rotation" : [
                0.7071068286895752,
                0,
                0,
                0.7071068286895752
            ],
            "scale" : [
                3.299999952316284,
                0.10000000149011612,
                5
            ],
            "translation" : [
                0,
                7,
                0
            ]
        }
    ],
    "materials" : [
        {
            "alphaMode" : "BLEND",
            "doubleSided" : true,
            "name" : "039BE5.003",
            "pbrMetallicRoughness" : {
                "baseColorFactor" : [
                    0.01176500041037798,
                    0.6078429818153381,
                    0.8980389833450317,
                    0
                ],
                "roughnessFactor" : 0.6732679605484009
            }
        },
        {
            "alphaMode" : "BLEND",
            "doubleSided" : true,
            "name" : "00BCD4.003",
            "pbrMetallicRoughness" : {
                "baseColorFactor" : [
                    0,
                    0.7372549772262573,
                    0.8313729763031006,
                    0
                ],
                "roughnessFactor" : 0.6732679605484009
            }
        },
        {
            "alphaMode" : "BLEND",
            "doubleSided" : true,
            "name" : "FFFFFF.003",
            "pbrMetallicRoughness" : {
                "baseColorFactor" : [
                    1,
                    1,
                    1,
                    0
                ],
                "roughnessFactor" : 0.6732679605484009
            }
        },
        {
            "doubleSided" : true,
            "name" : "dark",
            "pbrMetallicRoughness" : {
                "baseColorFactor" : [
                    0,
                    0,
                    0,
                    1
                ],
                "metallicFactor" : 0,
                "roughnessFactor" : 0.5
            }
        }
    ],
    "meshes" : [
        {
            "name" : "portel_Plane.003",
            "primitives" : [
                {
                    "attributes" : {
                        "POSITION" : 0,
                        "NORMAL" : 1
                    },
                    "indices" : 2,
                    "material" : 0
                },
                {
                    "attributes" : {
                        "POSITION" : 3,
                        "NORMAL" : 4
                    },
                    "indices" : 5,
                    "material" : 1
                },
                {
                    "attributes" : {
                        "POSITION" : 6,
                        "NORMAL" : 7
                    },
                    "indices" : 8,
                    "material" : 2
                }
            ]
        },
        {
            "name" : "Cylinder",
            "primitives" : [
                {
                    "attributes" : {
                        "POSITION" : 9,
                        "NORMAL" : 10,
                        "TEXCOORD_0" : 11
                    },
                    "indices" : 12,
                    "material" : 3
                }
            ]
        }
    ],
    "accessors" : [
        {
            "bufferView" : 0,
            "componentType" : 5126,
            "count" : 1942,
            "max" : [
                6.224147796630859,
                1.0293610095977783,
                0.10385800153017044
            ],
            "min" : [
                -6.752090930938721,
                -0.8385549783706665,
                -15.353254318237305
            ],
            "type" : "VEC3"
        },
        {
            "bufferView" : 1,
            "componentType" : 5126,
            "count" : 1942,
            "type" : "VEC3"
        },
        {
            "bufferView" : 2,
            "componentType" : 5123,
            "count" : 2928,
            "type" : "SCALAR"
        },
        {
            "bufferView" : 3,
            "componentType" : 5126,
            "count" : 1462,
            "max" : [
                6.97079610824585,
                0.7382959723472595,
                0.45516300201416016
            ],
            "min" : [
                -6.059074878692627,
                -1.0297449827194214,
                -15.08616828918457
            ],
            "type" : "VEC3"
        },
        {
            "bufferView" : 4,
            "componentType" : 5126,
            "count" : 1462,
            "type" : "VEC3"
        },
        {
            "bufferView" : 5,
            "componentType" : 5123,
            "count" : 2208,
            "type" : "SCALAR"
        },
        {
            "bufferView" : 6,
            "componentType" : 5126,
            "count" : 888,
            "max" : [
                3.9918179512023926,
                0.11314599961042404,
                -1.1120719909667969
            ],
            "min" : [
                -4.0621562004089355,
                -0.27105098962783813,
                -13.159150123596191
            ],
            "type" : "VEC3"
        },
        {
            "bufferView" : 7,
            "componentType" : 5126,
            "count" : 888,
            "type" : "VEC3"
        },
        {
            "bufferView" : 8,
            "componentType" : 5123,
            "count" : 1344,
            "type" : "SCALAR"
        },
        {
            "bufferView" : 9,
            "componentType" : 5126,
            "count" : 192,
            "max" : [
                1,
                1,
                1
            ],
            "min" : [
                -1,
                -1,
                -1
            ],
            "type" : "VEC3"
        },
        {
            "bufferView" : 10,
            "componentType" : 5126,
            "count" : 192,
            "type" : "VEC3"
        },
        {
            "bufferView" : 11,
            "componentType" : 5126,
            "count" : 192,
            "type" : "VEC2"
        },
        {
            "bufferView" : 12,
            "componentType" : 5123,
            "count" : 372,
            "type" : "SCALAR"
        }
    ],
    "bufferViews" : [
        {
            "buffer" : 0,
            "byteLength" : 23304,
            "byteOffset" : 0
        },
        {
            "buffer" : 0,
            "byteLength" : 23304,
            "byteOffset" : 23304
        },
        {
            "buffer" : 0,
            "byteLength" : 5856,
            "byteOffset" : 46608
        },
        {
            "buffer" : 0,
            "byteLength" : 17544,
            "byteOffset" : 52464
        },
        {
            "buffer" : 0,
            "byteLength" : 17544,
            "byteOffset" : 70008
        },
        {
            "buffer" : 0,
            "byteLength" : 4416,
            "byteOffset" : 87552
        },
        {
            "buffer" : 0,
            "byteLength" : 10656,
            "byteOffset" : 91968
        },
        {
            "buffer" : 0,
            "byteLength" : 10656,
            "byteOffset" : 102624
        },
        {
            "buffer" : 0,
            "byteLength" : 2688,
            "byteOffset" : 113280
        },
        {
            "buffer" : 0,
            "byteLength" : 2304,
            "byteOffset" : 115968
        },
        {
            "buffer" : 0,
            "byteLength" : 2304,
            "byteOffset" : 118272
        },
        {
            "buffer" : 0,
            "byteLength" : 1536,
            "byteOffset" : 120576
        },
        {
            "buffer" : 0,
            "byteLength" : 744,
            "byteOffset" : 122112
        }
    ],
    "buffers" : [
        {
            "byteLength" : 122856,
            "uri" : "portal.bin"
        }
    ]
}
